<svg className="sunlogo" width="8%" height="auto" viewBox="0 0 54 34" fill="none" xmlns="http://www.w3.org/2000/svg">
 <style>
    .sunlogo path {
      fill: black;
    }

    @media (prefers-color-scheme: dark) {
      .sunlogo path {
        fill: white;
      }
    }
  </style>
<path d="M27.0003 9.62085C28.2429 9.62085 29.2502 8.61353 29.2502 7.37091V2.24994C29.2502 1.00732 28.2429 0 27.0003 0C25.7577 0 24.7504 1.00732 24.7504 2.24994V7.37091C24.7504 8.61343 25.7577 9.62085 27.0003 9.62085Z" fill="#F1F1F1"/>
<path d="M51.75 24.7496H46.629C45.3864 24.7496 44.3791 25.757 44.3791 26.9996C44.3791 28.2422 45.3864 29.2495 46.629 29.2495H51.75C52.9926 29.2495 53.9999 28.2422 53.9999 26.9996C53.9999 25.757 52.9926 24.7496 51.75 24.7496Z" fill="#F1F1F1"/>
<path d="M9.4926 26.9996C9.4926 25.757 8.48528 24.7496 7.24266 24.7496H2.24994C1.00732 24.7496 0 25.757 0 26.9996C0 28.2422 1.00732 29.2495 2.24994 29.2495H7.24266C8.48528 29.2496 9.4926 28.2422 9.4926 26.9996Z" fill="#F1F1F1"/>
<path d="M42.4709 14.7109L47.3669 9.815C48.2455 8.93635 48.2455 7.5117 47.3669 6.63305C46.4882 5.7544 45.0635 5.7544 44.1849 6.63305L39.289 11.529C38.4103 12.4076 38.4103 13.8323 39.289 14.7109C40.1676 15.5896 41.5923 15.5896 42.4709 14.7109Z" fill="#F1F1F1"/>
<path d="M11.5295 14.7107C12.4082 15.5894 13.8328 15.5894 14.7115 14.7107C15.5901 13.8321 15.5901 12.4074 14.7115 11.5288L9.81555 6.63286C8.9369 5.75421 7.51225 5.75421 6.6336 6.63286C5.75495 7.51151 5.75495 8.93617 6.6336 9.81482L11.5295 14.7107Z" fill="#F1F1F1"/>
<path d="M46.5458 16.2589L44.1901 17.2601C43.0465 17.7462 42.5133 19.0673 42.9994 20.2109C43.4855 21.3545 44.8066 21.8875 45.9502 21.4015L48.3059 20.4003C49.4495 19.9142 49.9827 18.5931 49.4966 17.4495C49.0105 16.3058 47.6894 15.7728 46.5458 16.2589Z" fill="#F1F1F1"/>
<path d="M5.58433 20.7742L7.95809 21.7327C9.11032 22.1979 10.4216 21.6411 10.8868 20.4888C11.352 19.3366 10.7952 18.0253 9.64293 17.5601L7.26918 16.6016C6.11694 16.1364 4.80567 16.6933 4.34045 17.8455C3.87523 18.9977 4.4321 20.309 5.58433 20.7742Z" fill="#F1F1F1"/>
<path d="M17.26 9.81094C17.7461 10.9545 19.0672 11.4877 20.2108 11.0016C21.3544 10.5155 21.8875 9.19437 21.4014 8.05079L20.4002 5.69507C19.9141 4.55148 18.593 4.01834 17.4494 4.50444C16.3058 4.99054 15.7728 6.31163 16.2588 7.45521L17.26 9.81094Z" fill="#F1F1F1"/>
<path d="M33.511 10.8861C34.6633 11.3514 35.9745 10.7945 36.4398 9.64226L37.3982 7.2685C37.8635 6.11627 37.3066 4.80499 36.1544 4.33978C35.0021 3.87456 33.6909 4.43143 33.2256 5.58366L32.2671 7.95742C31.8019 9.10954 32.3588 10.4208 33.511 10.8861Z" fill="#F1F1F1"/>
<path d="M12.1881 32.2565C12.6062 33.4266 13.8937 34.0363 15.0639 33.6184C16.234 33.2003 15.4818 32.1702 15.0639 31C14.6193 29.7556 14.3895 28.5092 14.3895 27.2571C14.3895 21.0432 20.2876 14 26.5014 14C32.7138 14 40 20.7867 40 26.9996C40 28.2485 39.7694 29.4942 39.3234 30.7426C38.9054 31.9127 37.7663 33.2003 38.9366 33.6184C40.1067 34.0364 41.3943 33.4267 41.8123 32.2565C42.4265 30.5374 42.7512 28.7829 42.7512 26.9995C42.7512 18.3012 35.6989 11.2498 27.0014 11.2498C18.3024 11.2498 11.2516 18.3006 11.2516 26.9995C11.2515 28.785 11.5751 30.5405 12.1881 32.2565Z" fill="#F1F1F1"/>
<path d="M31.5013 26.9996C31.5013 28.1084 31.0829 29.1538 30.3265 29.994C29.495 30.9175 29.5696 32.3401 30.493 33.1715C31.4165 34.003 32.8391 33.9285 33.6706 33.005C35.1566 31.3547 36.0012 29.244 36.0012 26.9996C36.0012 22.0294 31.9706 17.9997 27.0014 17.9997C22.0306 17.9997 18.0015 22.0288 18.0015 26.9996C18.0015 29.2447 18.8447 31.3555 20.3299 33.005C21.1614 33.9285 22.5841 34.003 23.5076 33.1715C24.431 32.34 24.5056 30.9174 23.6741 29.994C22.9191 29.1553 22.5015 28.1102 22.5015 26.9996C22.5015 24.514 24.5158 22.4996 27.0015 22.4996C29.4855 22.4997 31.5013 24.5148 31.5013 26.9996Z" fill="#F1F1F1"/>
</svg>
