<svg class="downloadbtn" width="28" height="28" viewBox="0 0 28 28" fill="none" xmlns="http://www.w3.org/2000/svg">
<path fill-rule="evenodd" clip-rule="evenodd" d="M14.3636 2.63635C14.9912 2.63635 15.5 3.14512 15.5 3.77272V14.6657L19.2419 10.9237C19.6857 10.48 20.4052 10.48 20.849 10.9237C21.2928 11.3675 21.2928 12.087 20.849 12.5308L15.1672 18.2126C14.7234 18.6564 14.0039 18.6564 13.5601 18.2126L7.87829 12.5308C7.43451 12.087 7.43451 11.3675 7.87829 10.9237C8.32207 10.48 9.04157 10.48 9.48535 10.9237L13.2273 14.6657V3.77272C13.2273 3.14512 13.736 2.63635 14.3636 2.63635ZM4.13636 16.2727C4.76396 16.2727 5.27273 16.7815 5.27273 17.4091V21.9545C5.27273 22.2559 5.39245 22.545 5.60556 22.7581C5.81867 22.9712 6.10771 23.0909 6.40909 23.0909H22.3182C22.6196 23.0909 22.9086 22.9712 23.1217 22.7581C23.3348 22.545 23.4545 22.2559 23.4545 21.9545V17.4091C23.4545 16.7815 23.9633 16.2727 24.5909 16.2727C25.2185 16.2727 25.7273 16.7815 25.7273 17.4091V21.9545C25.7273 22.8587 25.3681 23.7258 24.7288 24.3651C24.0894 25.0045 23.2223 25.3636 22.3182 25.3636H6.40909C5.50494 25.3636 4.63783 25.0045 3.9985 24.3651C3.35917 23.7258 3 22.8587 3 21.9545V17.4091C3 16.7815 3.50877 16.2727 4.13636 16.2727Z" fill="white"/>
</svg>
