<svg width="28" height="28" viewBox="0 0 22 22" fill="none" xmlns="http://www.w3.org/2000/svg">
<path fill-rule="evenodd" clip-rule="evenodd" d="M2.00036 10.919C2.00012 10.9459 2 10.973 2 11C2 13.211 2.7973 15.2358 4.12009 16.8026C6.45116 13.7018 8.85596 11.8317 11.4741 10.8981L11.4755 10.8976C11.5891 10.8573 11.7044 10.8185 11.8213 10.7815C11.7327 10.5774 11.6427 10.3756 11.551 10.1756C11.4653 9.98859 11.378 9.803 11.2889 9.61841C8.63056 10.436 5.55964 10.8001 2.00036 10.919ZM2.24418 8.90896C5.42186 8.78829 8.08316 8.4615 10.3462 7.81227C9.47436 6.25945 8.43758 4.68988 7.13449 2.87008C4.7077 4.026 2.88003 6.23652 2.24418 8.90896ZM9.11131 2.1985C10.362 3.96744 11.3858 5.54604 12.2629 7.14437C14.0083 6.41476 15.4871 5.42292 16.7735 4.09561C15.2108 2.78748 13.1974 2 11 2C10.3522 2 9.72033 2.06845 9.11131 2.1985ZM18.1567 5.54203C16.7039 7.02729 15.0551 8.12567 13.1766 8.92983C13.2416 9.06649 13.3057 9.20381 13.369 9.34193C13.5185 9.66807 13.6636 9.99809 13.8047 10.3336C15.6488 10.0682 17.7515 10.1462 19.9925 10.6294C19.9152 8.7203 19.2432 6.96443 18.1567 5.54203ZM19.8497 12.6466C17.8935 12.1949 16.0989 12.0931 14.5511 12.2559C15.1765 14.0022 15.7411 15.9438 16.3216 18.2589C18.1311 16.9301 19.4255 14.941 19.8497 12.6466ZM14.5161 19.2873C13.8631 16.6295 13.2484 14.508 12.5648 12.645C12.4213 12.6881 12.2813 12.7338 12.1449 12.7823C9.94702 13.5663 7.79411 15.192 5.58238 18.1874C7.08958 19.3253 8.96599 20 11 20C12.2476 20 13.4359 19.7461 14.5161 19.2873ZM0 11C0 4.92487 4.92487 0 11 0C17.0751 0 22 4.92487 22 11C22 17.0751 17.0751 22 11 22C4.92487 22 0 17.0751 0 11Z" fill="#202020"/>
<path fill-rule="evenodd" clip-rule="evenodd" d="M2.00036 10.919C2.00012 10.9459 2 10.973 2 11C2 13.211 2.7973 15.2358 4.12009 16.8026C6.45116 13.7018 8.85596 11.8317 11.4741 10.8981L11.4755 10.8976C11.5891 10.8573 11.7044 10.8185 11.8213 10.7815C11.7327 10.5774 11.6427 10.3756 11.551 10.1756C11.4653 9.98859 11.378 9.803 11.2889 9.61841C8.63056 10.436 5.55964 10.8001 2.00036 10.919ZM2.24418 8.90896C5.42186 8.78829 8.08316 8.4615 10.3462 7.81227C9.47436 6.25945 8.43758 4.68988 7.13449 2.87008C4.7077 4.026 2.88003 6.23652 2.24418 8.90896ZM9.11131 2.1985C10.362 3.96744 11.3858 5.54604 12.2629 7.14437C14.0083 6.41476 15.4871 5.42292 16.7735 4.09561C15.2108 2.78748 13.1974 2 11 2C10.3522 2 9.72033 2.06845 9.11131 2.1985ZM18.1567 5.54203C16.7039 7.02729 15.0551 8.12567 13.1766 8.92983C13.2416 9.06649 13.3057 9.20381 13.369 9.34193C13.5185 9.66807 13.6636 9.99809 13.8047 10.3336C15.6488 10.0682 17.7515 10.1462 19.9925 10.6294C19.9152 8.7203 19.2432 6.96443 18.1567 5.54203ZM19.8497 12.6466C17.8935 12.1949 16.0989 12.0931 14.5511 12.2559C15.1765 14.0022 15.7411 15.9438 16.3216 18.2589C18.1311 16.9301 19.4255 14.941 19.8497 12.6466ZM14.5161 19.2873C13.8631 16.6295 13.2484 14.508 12.5648 12.645C12.4213 12.6881 12.2813 12.7338 12.1449 12.7823C9.94702 13.5663 7.79411 15.192 5.58238 18.1874C7.08958 19.3253 8.96599 20 11 20C12.2476 20 13.4359 19.7461 14.5161 19.2873ZM0 11C0 4.92487 4.92487 0 11 0C17.0751 0 22 4.92487 22 11C22 17.0751 17.0751 22 11 22C4.92487 22 0 17.0751 0 11Z" fill="url(#paint0_linear_122_64)"/>
<path fill-rule="evenodd" clip-rule="evenodd" d="M2.00036 10.919C2.00012 10.9459 2 10.973 2 11C2 13.211 2.7973 15.2358 4.12009 16.8026C6.45116 13.7018 8.85596 11.8317 11.4741 10.8981L11.4755 10.8976C11.5891 10.8573 11.7044 10.8185 11.8213 10.7815C11.7327 10.5774 11.6427 10.3756 11.551 10.1756C11.4653 9.98859 11.378 9.803 11.2889 9.61841C8.63056 10.436 5.55964 10.8001 2.00036 10.919ZM2.24418 8.90896C5.42186 8.78829 8.08316 8.4615 10.3462 7.81227C9.47436 6.25945 8.43758 4.68988 7.13449 2.87008C4.7077 4.026 2.88003 6.23652 2.24418 8.90896ZM9.11131 2.1985C10.362 3.96744 11.3858 5.54604 12.2629 7.14437C14.0083 6.41476 15.4871 5.42292 16.7735 4.09561C15.2108 2.78748 13.1974 2 11 2C10.3522 2 9.72033 2.06845 9.11131 2.1985ZM18.1567 5.54203C16.7039 7.02729 15.0551 8.12567 13.1766 8.92983C13.2416 9.06649 13.3057 9.20381 13.369 9.34193C13.5185 9.66807 13.6636 9.99809 13.8047 10.3336C15.6488 10.0682 17.7515 10.1462 19.9925 10.6294C19.9152 8.7203 19.2432 6.96443 18.1567 5.54203ZM19.8497 12.6466C17.8935 12.1949 16.0989 12.0931 14.5511 12.2559C15.1765 14.0022 15.7411 15.9438 16.3216 18.2589C18.1311 16.9301 19.4255 14.941 19.8497 12.6466ZM14.5161 19.2873C13.8631 16.6295 13.2484 14.508 12.5648 12.645C12.4213 12.6881 12.2813 12.7338 12.1449 12.7823C9.94702 13.5663 7.79411 15.192 5.58238 18.1874C7.08958 19.3253 8.96599 20 11 20C12.2476 20 13.4359 19.7461 14.5161 19.2873ZM0 11C0 4.92487 4.92487 0 11 0C17.0751 0 22 4.92487 22 11C22 17.0751 17.0751 22 11 22C4.92487 22 0 17.0751 0 11Z" fill="url(#paint1_linear_122_64)"/>
<defs>
<linearGradient id="paint0_linear_122_64" x1="-4.86047" y1="-14.5814" x2="18.1628" y2="29.4186" gradientUnits="userSpaceOnUse">
<stop stop-color="#BAF6F9"/>
<stop offset="1" stop-color="#19EDBA"/>
</linearGradient>
<linearGradient id="paint1_linear_122_64" x1="-4.86047" y1="-14.5814" x2="18.1628" y2="29.4186" gradientUnits="userSpaceOnUse">
<stop stop-color="#BAF6F9"/>
<stop offset="1" stop-color="#005C46"/>
</linearGradient>
</defs>
</svg>
