<svg width="28" height="28" viewBox="0 0 28 28" fill="none" xmlns="http://www.w3.org/2000/svg">
<path fill-rule="evenodd" clip-rule="evenodd" d="M7.75 2.75C4.98858 2.75 2.75 4.98858 2.75 7.75V20.25C2.75 23.0114 4.98858 25.25 7.75 25.25H20.25C23.0114 25.25 25.25 23.0114 25.25 20.25V7.75C25.25 4.98858 23.0114 2.75 20.25 2.75H7.75ZM0.25 7.75C0.25 3.60786 3.60786 0.25 7.75 0.25H20.25C24.3921 0.25 27.75 3.60786 27.75 7.75V20.25C27.75 24.3921 24.3921 27.75 20.25 27.75H7.75C3.60786 27.75 0.25 24.3921 0.25 20.25V7.75ZM19.625 7.125C19.625 6.43464 20.1846 5.875 20.875 5.875H20.8875C21.5779 5.875 22.1375 6.43464 22.1375 7.125C22.1375 7.81536 21.5779 8.375 20.8875 8.375H20.875C20.1846 8.375 19.625 7.81536 19.625 7.125ZM14.6041 10.2365C13.8239 10.1208 13.0271 10.2541 12.3269 10.6173C11.6268 10.9806 11.0591 11.5554 10.7045 12.26C10.3498 12.9645 10.2264 13.7629 10.3517 14.5417C10.477 15.3204 10.8447 16.0398 11.4024 16.5976C11.9602 17.1553 12.6796 17.523 13.4583 17.6483C14.2371 17.7736 15.0355 17.6502 15.74 17.2955C16.4446 16.9409 17.0194 16.3732 17.3827 15.6731C17.746 14.9729 17.8792 14.1761 17.7635 13.3959C17.6455 12.6 17.2746 11.8632 16.7057 11.2943C16.1368 10.7254 15.4 10.3545 14.6041 10.2365ZM11.1755 8.39827C12.3424 7.79281 13.6705 7.57069 14.9709 7.76352C16.2973 7.96022 17.5253 8.57831 18.4735 9.5265C19.4217 10.4747 20.0398 11.7027 20.2365 13.0291C20.4293 14.3295 20.2072 15.6576 19.6017 16.8245C18.9963 17.9914 18.0383 18.9376 16.864 19.5286C15.6898 20.1197 14.3591 20.3254 13.0611 20.1165C11.7632 19.9077 10.5642 19.2949 9.63467 18.3653C8.7051 17.4358 8.09231 16.2368 7.88346 14.9389C7.67461 13.6409 7.88033 12.3102 8.47136 11.136C9.0624 9.96173 10.0086 9.00374 11.1755 8.39827Z" fill="#202020"/>
<path fill-rule="evenodd" clip-rule="evenodd" d="M7.75 2.75C4.98858 2.75 2.75 4.98858 2.75 7.75V20.25C2.75 23.0114 4.98858 25.25 7.75 25.25H20.25C23.0114 25.25 25.25 23.0114 25.25 20.25V7.75C25.25 4.98858 23.0114 2.75 20.25 2.75H7.75ZM0.25 7.75C0.25 3.60786 3.60786 0.25 7.75 0.25H20.25C24.3921 0.25 27.75 3.60786 27.75 7.75V20.25C27.75 24.3921 24.3921 27.75 20.25 27.75H7.75C3.60786 27.75 0.25 24.3921 0.25 20.25V7.75ZM19.625 7.125C19.625 6.43464 20.1846 5.875 20.875 5.875H20.8875C21.5779 5.875 22.1375 6.43464 22.1375 7.125C22.1375 7.81536 21.5779 8.375 20.8875 8.375H20.875C20.1846 8.375 19.625 7.81536 19.625 7.125ZM14.6041 10.2365C13.8239 10.1208 13.0271 10.2541 12.3269 10.6173C11.6268 10.9806 11.0591 11.5554 10.7045 12.26C10.3498 12.9645 10.2264 13.7629 10.3517 14.5417C10.477 15.3204 10.8447 16.0398 11.4024 16.5976C11.9602 17.1553 12.6796 17.523 13.4583 17.6483C14.2371 17.7736 15.0355 17.6502 15.74 17.2955C16.4446 16.9409 17.0194 16.3732 17.3827 15.6731C17.746 14.9729 17.8792 14.1761 17.7635 13.3959C17.6455 12.6 17.2746 11.8632 16.7057 11.2943C16.1368 10.7254 15.4 10.3545 14.6041 10.2365ZM11.1755 8.39827C12.3424 7.79281 13.6705 7.57069 14.9709 7.76352C16.2973 7.96022 17.5253 8.57831 18.4735 9.5265C19.4217 10.4747 20.0398 11.7027 20.2365 13.0291C20.4293 14.3295 20.2072 15.6576 19.6017 16.8245C18.9963 17.9914 18.0383 18.9376 16.864 19.5286C15.6898 20.1197 14.3591 20.3254 13.0611 20.1165C11.7632 19.9077 10.5642 19.2949 9.63467 18.3653C8.7051 17.4358 8.09231 16.2368 7.88346 14.9389C7.67461 13.6409 7.88033 12.3102 8.47136 11.136C9.0624 9.96173 10.0086 9.00374 11.1755 8.39827Z" fill="url(#paint0_linear_122_48)"/>
<defs>
<linearGradient id="paint0_linear_122_48" x1="-5.82558" y1="-17.9767" x2="22.9535" y2="37.0233" gradientUnits="userSpaceOnUse">
<stop stop-color="#BAF6F9"/>
<stop offset="1" stop-color="#005C46"/>
</linearGradient>
</defs>
</svg>
