<?xml version="1.0" encoding="UTF-8"?>
<svg id="Layer_2" data-name="Layer 2" xmlns="http://www.w3.org/2000/svg" viewBox="0 0 1157.03 817.87">
  <defs>
    <style>
      .cls-1, .cls-2 {
        stroke-width: 0px;
        fill: #fff;
      }

      .cls-2 {
        fill: #fff;
      }
    </style>
  </defs>
  <g id="Layer_1-2" data-name="Layer 1">
    <g id="Mute">
      <g>
        <path class="cls-1" d="m633.78,2.34l-299.27,196.78c-2.3,1.51-4.98,2.31-7.73,2.31H77.57C34.73,201.43,0,236.16,0,279v259.87c0,42.84,34.73,77.57,77.57,77.57h249.21c2.75,0,5.43.8,7.73,2.31l299.27,196.78c9.35,6.15,21.8-.56,21.8-11.75V14.09c0-11.2-12.44-17.9-21.8-11.75Z"/>
        <rect class="cls-2" x="118.29" y="201.43" width="41.14" height="415"/>
      </g>
      <g>
        <path class="cls-1" d="m1148.83,607.18h0c-10.94,12.34-28.67,12.34-39.61,0l-299.87-338.42c-10.94-12.34-10.94-32.36,0-44.7h0c10.94-12.34,28.67-12.34,39.61,0l299.87,338.42c10.94,12.34,10.94,32.36,0,44.7Z"/>
        <path class="cls-1" d="m809.36,607.18h0c10.94,12.34,28.67,12.34,39.61,0l299.87-338.42c10.94-12.34,10.94-32.36,0-44.7h0c-10.94-12.34-28.67-12.34-39.61,0l-299.87,338.42c-10.94,12.34-10.94,32.36,0,44.7Z"/>
      </g>
    </g>
  </g>
</svg>