<svg width="28" height="28" viewBox="0 0 24 21" fill="none" xmlns="http://www.w3.org/2000/svg">
<path fill-rule="evenodd" clip-rule="evenodd" d="M14.5256 1.35018C15.5744 0.949871 16.7208 0.881327 17.8099 1.15382C18.6759 1.37051 19.4724 1.79454 20.1327 2.38509C20.9449 2.08657 21.7152 1.68256 22.4237 1.18282L23.0001 1.99999L23.9717 2.2366C23.6292 3.64313 22.9426 4.93955 21.977 6.01096C21.9918 6.17236 21.9996 6.33442 22.0001 6.49668L22.0001 6.49998C22.0001 12.5999 19.0632 17.075 14.845 19.3202C10.651 21.5525 5.29097 21.5278 0.51446 18.8741C0.109649 18.6492 -0.0877967 18.1758 0.0372519 17.73C0.162301 17.2841 0.577127 16.9824 1.03985 17.0008C2.72666 17.0679 4.39647 16.7325 5.91484 16.033C4.41169 15.1054 3.32952 14.0042 2.57716 12.8163C1.57353 11.2316 1.19466 9.55289 1.12613 8.04539C1.05781 6.54227 1.29658 5.18888 1.54758 4.21835C1.67368 3.73076 1.80452 3.33349 1.90538 3.05452C1.95587 2.91487 1.99901 2.8044 2.03054 2.72657C2.04631 2.68764 2.0592 2.65683 2.06866 2.63458L2.08023 2.60765L2.08319 2.6009C2.09023 2.58472 2.09773 2.56867 2.10568 2.55277L3.0001 2.99998L3.81846 2.42527C4.734 3.72895 5.95775 4.78597 7.38071 5.5022C8.51256 6.0719 9.7425 6.4119 10.9998 6.5064C10.9924 5.39674 11.3221 4.31064 11.9457 3.39204C12.5762 2.46324 13.4768 1.75048 14.5256 1.35018ZM3.40475 5.04359C3.22106 5.84496 3.07437 6.86122 3.12407 7.95458C3.18055 9.19708 3.48918 10.5184 4.2668 11.7462C5.04039 12.9676 6.31614 14.1572 8.40624 15.0862C8.73804 15.2336 8.96384 15.5494 8.99614 15.911C9.02844 16.2727 8.86216 16.6234 8.56173 16.8274C7.4508 17.5815 6.2343 18.1488 4.9602 18.5157C8.13037 19.3233 11.3071 18.9376 13.9053 17.5547C17.4366 15.6751 19.9996 11.9008 20.0001 6.50165C19.9993 6.28555 19.9785 6.06999 19.9379 5.85774C19.8752 5.52987 19.9803 5.19236 20.2179 4.95798C20.4407 4.73829 20.647 4.50415 20.8358 4.25749C20.6093 4.34104 20.3801 4.41777 20.1484 4.48752C19.7718 4.60093 19.3637 4.48302 19.1055 4.18622C18.6377 3.64831 18.016 3.26705 17.3244 3.094C16.6328 2.92096 15.9048 2.96449 15.2388 3.2187C14.5727 3.47291 14.0009 3.92553 13.6005 4.51536C13.2001 5.10519 12.9905 5.80375 13 6.51658L13.0002 6.52998H13.0001V7.52998C13.0001 8.07217 12.568 8.51559 12.026 8.52965C10.1038 8.57949 8.19909 8.15317 6.48152 7.28866C5.33595 6.71206 4.29735 5.95247 3.40475 5.04359Z" fill="#202020"/>
<path fill-rule="evenodd" clip-rule="evenodd" d="M14.5256 1.35018C15.5744 0.949871 16.7208 0.881327 17.8099 1.15382C18.6759 1.37051 19.4724 1.79454 20.1327 2.38509C20.9449 2.08657 21.7152 1.68256 22.4237 1.18282L23.0001 1.99999L23.9717 2.2366C23.6292 3.64313 22.9426 4.93955 21.977 6.01096C21.9918 6.17236 21.9996 6.33442 22.0001 6.49668L22.0001 6.49998C22.0001 12.5999 19.0632 17.075 14.845 19.3202C10.651 21.5525 5.29097 21.5278 0.51446 18.8741C0.109649 18.6492 -0.0877967 18.1758 0.0372519 17.73C0.162301 17.2841 0.577127 16.9824 1.03985 17.0008C2.72666 17.0679 4.39647 16.7325 5.91484 16.033C4.41169 15.1054 3.32952 14.0042 2.57716 12.8163C1.57353 11.2316 1.19466 9.55289 1.12613 8.04539C1.05781 6.54227 1.29658 5.18888 1.54758 4.21835C1.67368 3.73076 1.80452 3.33349 1.90538 3.05452C1.95587 2.91487 1.99901 2.8044 2.03054 2.72657C2.04631 2.68764 2.0592 2.65683 2.06866 2.63458L2.08023 2.60765L2.08319 2.6009C2.09023 2.58472 2.09773 2.56867 2.10568 2.55277L3.0001 2.99998L3.81846 2.42527C4.734 3.72895 5.95775 4.78597 7.38071 5.5022C8.51256 6.0719 9.7425 6.4119 10.9998 6.5064C10.9924 5.39674 11.3221 4.31064 11.9457 3.39204C12.5762 2.46324 13.4768 1.75048 14.5256 1.35018ZM3.40475 5.04359C3.22106 5.84496 3.07437 6.86122 3.12407 7.95458C3.18055 9.19708 3.48918 10.5184 4.2668 11.7462C5.04039 12.9676 6.31614 14.1572 8.40624 15.0862C8.73804 15.2336 8.96384 15.5494 8.99614 15.911C9.02844 16.2727 8.86216 16.6234 8.56173 16.8274C7.4508 17.5815 6.2343 18.1488 4.9602 18.5157C8.13037 19.3233 11.3071 18.9376 13.9053 17.5547C17.4366 15.6751 19.9996 11.9008 20.0001 6.50165C19.9993 6.28555 19.9785 6.06999 19.9379 5.85774C19.8752 5.52987 19.9803 5.19236 20.2179 4.95798C20.4407 4.73829 20.647 4.50415 20.8358 4.25749C20.6093 4.34104 20.3801 4.41777 20.1484 4.48752C19.7718 4.60093 19.3637 4.48302 19.1055 4.18622C18.6377 3.64831 18.016 3.26705 17.3244 3.094C16.6328 2.92096 15.9048 2.96449 15.2388 3.2187C14.5727 3.47291 14.0009 3.92553 13.6005 4.51536C13.2001 5.10519 12.9905 5.80375 13 6.51658L13.0002 6.52998H13.0001V7.52998C13.0001 8.07217 12.568 8.51559 12.026 8.52965C10.1038 8.57949 8.19909 8.15317 6.48152 7.28866C5.33595 6.71206 4.29735 5.95247 3.40475 5.04359Z" fill="url(#paint0_linear_122_61)"/>
<path fill-rule="evenodd" clip-rule="evenodd" d="M14.5256 1.35018C15.5744 0.949871 16.7208 0.881327 17.8099 1.15382C18.6759 1.37051 19.4724 1.79454 20.1327 2.38509C20.9449 2.08657 21.7152 1.68256 22.4237 1.18282L23.0001 1.99999L23.9717 2.2366C23.6292 3.64313 22.9426 4.93955 21.977 6.01096C21.9918 6.17236 21.9996 6.33442 22.0001 6.49668L22.0001 6.49998C22.0001 12.5999 19.0632 17.075 14.845 19.3202C10.651 21.5525 5.29097 21.5278 0.51446 18.8741C0.109649 18.6492 -0.0877967 18.1758 0.0372519 17.73C0.162301 17.2841 0.577127 16.9824 1.03985 17.0008C2.72666 17.0679 4.39647 16.7325 5.91484 16.033C4.41169 15.1054 3.32952 14.0042 2.57716 12.8163C1.57353 11.2316 1.19466 9.55289 1.12613 8.04539C1.05781 6.54227 1.29658 5.18888 1.54758 4.21835C1.67368 3.73076 1.80452 3.33349 1.90538 3.05452C1.95587 2.91487 1.99901 2.8044 2.03054 2.72657C2.04631 2.68764 2.0592 2.65683 2.06866 2.63458L2.08023 2.60765L2.08319 2.6009C2.09023 2.58472 2.09773 2.56867 2.10568 2.55277L3.0001 2.99998L3.81846 2.42527C4.734 3.72895 5.95775 4.78597 7.38071 5.5022C8.51256 6.0719 9.7425 6.4119 10.9998 6.5064C10.9924 5.39674 11.3221 4.31064 11.9457 3.39204C12.5762 2.46324 13.4768 1.75048 14.5256 1.35018ZM3.40475 5.04359C3.22106 5.84496 3.07437 6.86122 3.12407 7.95458C3.18055 9.19708 3.48918 10.5184 4.2668 11.7462C5.04039 12.9676 6.31614 14.1572 8.40624 15.0862C8.73804 15.2336 8.96384 15.5494 8.99614 15.911C9.02844 16.2727 8.86216 16.6234 8.56173 16.8274C7.4508 17.5815 6.2343 18.1488 4.9602 18.5157C8.13037 19.3233 11.3071 18.9376 13.9053 17.5547C17.4366 15.6751 19.9996 11.9008 20.0001 6.50165C19.9993 6.28555 19.9785 6.06999 19.9379 5.85774C19.8752 5.52987 19.9803 5.19236 20.2179 4.95798C20.4407 4.73829 20.647 4.50415 20.8358 4.25749C20.6093 4.34104 20.3801 4.41777 20.1484 4.48752C19.7718 4.60093 19.3637 4.48302 19.1055 4.18622C18.6377 3.64831 18.016 3.26705 17.3244 3.094C16.6328 2.92096 15.9048 2.96449 15.2388 3.2187C14.5727 3.47291 14.0009 3.92553 13.6005 4.51536C13.2001 5.10519 12.9905 5.80375 13 6.51658L13.0002 6.52998H13.0001V7.52998C13.0001 8.07217 12.568 8.51559 12.026 8.52965C10.1038 8.57949 8.19909 8.15317 6.48152 7.28866C5.33595 6.71206 4.29735 5.95247 3.40475 5.04359Z" fill="url(#paint1_linear_122_61)"/>
<defs>
<linearGradient id="paint0_linear_122_61" x1="-5.29608" y1="-12.2286" x2="13.2986" y2="30.485" gradientUnits="userSpaceOnUse">
<stop stop-color="#BAF6F9"/>
<stop offset="1" stop-color="#19EDBA"/>
</linearGradient>
<linearGradient id="paint1_linear_122_61" x1="-5.29608" y1="-12.2286" x2="13.2986" y2="30.485" gradientUnits="userSpaceOnUse">
<stop stop-color="#BAF6F9"/>
<stop offset="1" stop-color="#005C46"/>
</linearGradient>
</defs>
</svg>
